<svg width="28" height="29" viewBox="0 0 28 29" fill="none" xmlns="http://www.w3.org/2000/svg">
<path
        d="M20.8522 27.7469V27.7469H20.8462C19.759 27.7469 18.6351 27.5768 17.4729 27.2324C16.3036 26.8858 15.14 26.405 13.9821 25.7885C12.8216 25.1705 11.6765 24.4349 10.5471 23.5807C9.41722 22.7261 8.3547 21.7952 7.35937 20.7877C6.36298 19.7791 5.43843 18.7076 4.58562 17.5729C3.73503 16.4412 3.01182 15.2942 2.41477 14.1321C1.81701 12.9686 1.34568 11.8036 0.999458 10.637C0.656123 9.48009 0.491663 8.37691 0.500325 7.3255L0.500342 7.3255V7.32138C0.500342 6.58773 0.562257 5.97906 0.678412 5.488C0.795277 4.99394 0.973343 4.54727 1.21065 4.14503C1.45585 3.72943 1.75308 3.33276 2.10384 2.95514C2.47275 2.55798 2.90621 2.1095 3.40473 1.60941L3.62359 1.38986C3.86141 1.15128 4.13162 0.968254 4.43674 0.838169C4.73732 0.710015 5.05795 0.644958 5.4033 0.644958C5.73796 0.644958 6.05419 0.70941 6.35619 0.838169C6.66174 0.968437 6.93777 1.15223 7.18593 1.39277L10.1923 4.40862C10.428 4.64512 10.6044 4.91302 10.7248 5.21506C10.847 5.52142 10.9134 5.84914 10.9218 6.20172C10.9212 6.54506 10.8626 6.82949 10.7589 7.06521C10.6375 7.34139 10.4884 7.59578 10.3117 7.82937C10.1317 8.06746 9.9377 8.2736 9.73039 8.44958C9.48322 8.65938 9.24957 8.87458 9.0296 9.09525C8.8029 9.32267 8.61139 9.54923 8.46119 9.77525C8.27682 10.0527 8.18479 10.3687 8.17276 10.7066L8.17244 10.7155V10.7244C8.17244 11.2048 8.34835 11.6289 8.68764 11.9693L16.2244 19.5299C16.5638 19.8703 16.9873 20.0474 17.4676 20.0474C17.8081 20.0474 18.1249 19.9468 18.4065 19.7542C18.6337 19.5989 18.8601 19.4113 19.0859 19.1946L18.7397 18.8339L19.0859 19.1946C19.3092 18.9804 19.5263 18.7479 19.7375 18.4976C19.915 18.2871 20.1234 18.0857 20.3642 17.8941C20.5946 17.7108 20.8386 17.5651 21.0967 17.4552L20.9009 16.9951L21.0967 17.4552C21.324 17.3585 21.6165 17.2979 21.9869 17.2893C22.3237 17.29 22.6416 17.3515 22.9443 17.4729C23.2429 17.5927 23.5148 17.7733 23.7612 18.0205L26.7705 21.0393C27.0062 21.2758 27.1826 21.5437 27.303 21.8457C27.4252 22.1521 27.4916 22.4798 27.5 22.8324C27.4993 23.1708 27.4379 23.4902 27.3167 23.7943C27.1971 24.0943 27.0169 24.3672 26.7705 24.6144L26.579 24.8065C26.0897 25.2974 25.6425 25.7323 25.2372 26.1118C24.8525 26.472 24.4548 26.7683 24.0445 27.0035C23.6387 27.2362 23.1825 27.4218 22.673 27.5581C22.1819 27.6894 21.5778 27.7557 20.8522 27.7469ZM20.8416 26.9905L20.8416 26.9905H20.8462C21.5291 26.9905 22.1239 26.9291 22.6187 26.7947C23.1047 26.6626 23.5541 26.4634 23.9644 26.1958C24.3652 25.9345 24.7417 25.6156 25.0944 25.2421C25.4173 24.9002 25.8003 24.5114 26.244 24.0754L26.244 24.0754L26.2476 24.0718C26.5869 23.7314 26.7628 23.3073 26.7628 22.8269C26.7628 22.5385 26.6536 22.2571 26.5036 21.9992C26.3568 21.7468 26.1642 21.4843 25.9317 21.2122C25.7043 20.946 25.463 20.6851 25.2081 20.4293C24.9575 20.178 24.6979 19.9268 24.4293 19.6759C24.1638 19.428 23.9298 19.2116 23.7273 19.027C23.5304 18.8474 23.3679 18.6931 23.2384 18.5632C22.8963 18.22 22.4671 18.0457 21.9815 18.0457C21.641 18.0457 21.3242 18.1463 21.0427 18.3388C20.8124 18.4963 20.588 18.6865 20.369 18.9062C20.1604 19.1155 19.9483 19.3425 19.7326 19.5872C19.5435 19.8016 19.328 20.0056 19.085 20.1989C18.8546 20.3823 18.6106 20.528 18.3524 20.6379C18.1252 20.7346 17.8327 20.7951 17.4622 20.8037C17.1254 20.8031 16.8075 20.7416 16.5049 20.6202C16.2062 20.5003 15.9344 20.3198 15.6879 20.0726L8.15113 12.5119C7.91539 12.2754 7.73901 12.0075 7.61858 11.7055C7.49642 11.3991 7.43003 11.0714 7.42161 10.7188C7.42223 10.3755 7.48081 10.0911 7.58448 9.85535C7.70594 9.57917 7.85504 9.32478 8.03169 9.09119C8.21174 8.8531 8.4057 8.64696 8.61301 8.47098C8.86305 8.25874 9.09918 8.03642 9.32123 7.80398C9.54278 7.57206 9.72938 7.35084 9.87583 7.14097C10.0664 6.86783 10.1586 6.55166 10.1706 6.214L10.171 6.2051V6.19621C10.171 5.71052 9.99777 5.28068 9.65576 4.93758C9.54496 4.82643 9.39572 4.6681 9.20635 4.46005L8.83658 4.7966L9.20635 4.46004C9.01373 4.24841 8.79847 4.01409 8.56063 3.75715C8.3192 3.49632 8.0687 3.23574 7.80917 2.97539C7.54546 2.71084 7.28078 2.46421 7.01506 2.23574C6.74402 2.00268 6.48466 1.81201 6.23809 1.67221C5.98604 1.52929 5.72295 1.43089 5.45321 1.40383L5.42832 1.40133H5.4033C4.92295 1.40133 4.49944 1.5784 4.1601 1.91882L2.99744 3.08516C2.641 3.44273 2.32948 3.81321 2.06461 4.197C1.78454 4.60284 1.57891 5.0532 1.44628 5.54446C1.31321 6.03735 1.24701 6.63099 1.23755 7.31446L1.2375 7.31446V7.32138C1.2375 8.39987 1.41034 9.50512 1.75121 10.6354C2.09024 11.7597 2.56463 12.8799 3.17231 13.9959C3.77803 15.1084 4.48977 16.2 5.30669 17.271C6.12272 18.3407 7.01268 19.359 7.97637 20.3257C8.9412 21.2936 9.95774 22.1784 11.026 22.9798C12.0933 23.7805 13.1811 24.4802 14.2894 25.0782C15.4012 25.678 16.5086 26.1446 17.6112 26.4755C18.7179 26.8076 19.7952 26.9809 20.8416 26.9905Z"
      stroke="#081b29"/>
</svg>
